<?xml version="1.0" encoding="utf-8"?>
<!-- Generator: Adobe Illustrator 26.3.1, SVG Export Plug-In . SVG Version: 6.00 Build 0)  -->
<svg version="1.1" id="Layer_1" xmlns="http://www.w3.org/2000/svg" xmlns:xlink="http://www.w3.org/1999/xlink" x="0px" y="0px"
	 viewBox="0 0 654 105" style="enable-background:new 0 0 654 105;" xml:space="preserve">
<style type="text/css">
	.st0{fill:#FF3E17;}
	.st1{fill:#020000;}
</style>
<g>
	<g>
		<g>
			<path class="st0" d="M165.2,23.7c1.4-2.2,2.1-4.7,2.1-7.2c0-2.5-0.7-5-2-7.1l-5.1-8.2l-34.7,55.6c-1.4,2.2-2.1,4.7-2.1,7.2
				c0,2.5,0.7,5,2,7.1l5.1,8.2L165.2,23.7z"/>
			<path class="st0" d="M193.9,69.6c1.4-2.2,2.1-4.7,2.1-7.2c0-2.5-0.7-5-2-7.1l-5.1-8.2l-21.6,34.5c-1.4,2.2-2.1,4.7-2.1,7.2
				c0,2.5,0.7,5,2,7.1l5.1,8.2L193.9,69.6z"/>
			<path class="st0" d="M179.6,32.3l-5.1-8.2l-35.9,57.5c-1.4,2.2-2.1,4.7-2.1,7.2c0,2.5,0.7,5,2,7.1l5.1,8.2l35.9-57.5
				c1.4-2.2,2.1-4.7,2.1-7.2C181.6,36.9,180.9,34.4,179.6,32.3z"/>
		</g>
		<g>
			<path class="st1" d="M242.3,1.2h11.2c3,0,5.4,0.9,6.9,2.3c1.1,1.1,1.7,2.5,1.7,4.2v0.1c0,3.4-2.1,5.2-4.2,6.1
				c3.1,0.9,5.6,2.7,5.6,6.4v0.1c0,4.5-3.8,7.2-9.6,7.2h-11.7V1.2z M259.1,8.1c0-2.6-2.1-4.3-5.8-4.3h-8v9.1h7.8
				C256.6,12.9,259.1,11.3,259.1,8.1L259.1,8.1z M253.5,15.6h-8.3v9.3h8.9c4,0,6.5-1.8,6.5-4.7v-0.1
				C260.5,17.2,258.1,15.6,253.5,15.6z"/>
			<path class="st1" d="M267.5,17.9L267.5,17.9c0-6.4,4.6-10.2,9.3-10.2c3.6,0,6,2,7.5,4.1V8.1h2.9v19.5h-2.9v-3.9
				c-1.6,2.3-3.9,4.3-7.5,4.3C272.1,28,267.5,24.3,267.5,17.9z M284.3,17.8L284.3,17.8c0-4.6-3.4-7.6-7-7.6c-3.8,0-6.9,2.8-6.9,7.5
				v0.1c0,4.6,3.2,7.5,6.9,7.5C280.9,25.4,284.3,22.3,284.3,17.8z"/>
			<path class="st1" d="M293.2,8.1h2.9v3.4c1.3-2.1,3.3-3.8,6.7-3.8c4.7,0,7.5,3.2,7.5,7.8v12.1h-2.9V16.2c0-3.6-2-5.9-5.4-5.9
				c-3.4,0-5.8,2.4-5.8,6.1v11.1h-2.9V8.1z"/>
			<path class="st1" d="M316.1,0h2.9v19l10.5-11h3.6l-8.2,8.4l8.4,11.1h-3.5l-7-9.1l-4,4v5.1h-2.9V0z"/>
		</g>
		<g>
			<path class="st1" d="M216.2,96.4l7.9-8.8c3.3,3.6,6.4,5.7,10.4,5.7c4.7,0,7.7-2.9,7.7-9.5V47h12.9v37.4c0,6.8-2,11.8-5.4,15.3
				c-3.5,3.5-8.7,5.3-14.9,5.3C226,105,220.2,101,216.2,96.4z"/>
			<path class="st1" d="M263.5,82.3v-0.2c0-14.6,9.5-22.6,19.9-22.6c6.6,0,10.7,3,13.6,6.5v-5.7h12.4v43.7H297v-6.3
				c-3,4.1-7.2,7.1-13.6,7.1C273.2,105,263.5,97,263.5,82.3z M297.2,82.3v-0.2c0-7.3-4.8-12.1-10.6-12.1c-5.8,0-10.7,4.7-10.7,12.1
				v0.2c0,7.3,4.9,12.1,10.7,12.1C292.4,94.4,297.2,89.6,297.2,82.3z"/>
			<path class="st1" d="M320.1,44.6h12.4v31.7l14.5-15.9h14.9l-16.6,17.2l17.2,26.5h-14.4l-11.2-18l-4.4,4.7v13.3h-12.4V44.6z"/>
			<path class="st1" d="M364,82.3v-0.2c0-14.6,9.5-22.6,19.9-22.6c6.6,0,10.7,3,13.6,6.5v-5.7H410v43.7h-12.4v-6.3
				c-3,4.1-7.2,7.1-13.6,7.1C373.7,105,364,97,364,82.3z M397.7,82.3v-0.2c0-7.3-4.8-12.1-10.6-12.1c-5.8,0-10.7,4.7-10.7,12.1v0.2
				c0,7.3,4.9,12.1,10.7,12.1C392.9,94.4,397.7,89.6,397.7,82.3z"/>
			<path class="st1" d="M420.7,60.4h12.4v8.8c2.5-6,6.6-10,14-9.6v13h-0.7c-8.2,0-13.3,5-13.3,15.4v16.2h-12.4V60.4z"/>
			<path class="st1" d="M456.4,91.7V71h-5.2V60.4h5.2V49.2h12.4v11.2h10.3V71h-10.3v18.7c0,2.9,1.2,4.2,4,4.2c2.3,0,4.3-0.6,6.1-1.6
				v10c-2.6,1.6-5.6,2.5-9.8,2.5C461.6,104.9,456.4,101.9,456.4,91.7z"/>
			<path class="st1" d="M484.7,82.3v-0.2c0-14.6,9.5-22.6,19.9-22.6c6.6,0,10.7,3,13.6,6.5v-5.7h12.4v43.7h-12.4v-6.3
				c-3,4.1-7.2,7.1-13.6,7.1C494.4,105,484.7,97,484.7,82.3z M518.4,82.3v-0.2c0-7.3-4.8-12.1-10.6-12.1c-5.8,0-10.7,4.7-10.7,12.1
				v0.2c0,7.3,4.9,12.1,10.7,12.1C513.5,94.4,518.4,89.6,518.4,82.3z"/>
		</g>
	</g>
</g>
</svg>
